<?xml version="1.0" standalone="no"?>
<!DOCTYPE svg PUBLIC "-//W3C//DTD SVG 20010904//EN"
 "http://www.w3.org/TR/2001/REC-SVG-20010904/DTD/svg10.dtd">
<svg version="1.0" xmlns="http://www.w3.org/2000/svg"
 width="2516.000000pt" height="2516.000000pt" viewBox="0 0 2516.000000 2516.000000"
 preserveAspectRatio="xMidYMid meet">
<metadata>
Created by potrace 1.11, written by Peter Selinger 2001-2013
</metadata>
<g transform="translate(0.000000,2516.000000) scale(0.100000,-0.100000)"
fill="#000000" stroke="none">
<path d="M15367 17994 c-1 -1 -132 -5 -292 -8 -159 -4 -328 -9 -375 -11 -46
-2 -138 -7 -205 -10 -66 -3 -151 -7 -190 -10 -181 -11 -256 -16 -315 -20 -36
-2 -103 -7 -150 -10 -47 -3 -105 -7 -130 -10 -25 -2 -85 -6 -135 -10 -49 -3
-101 -8 -115 -10 -14 -2 -65 -6 -113 -10 -48 -3 -96 -8 -105 -10 -14 -2 -141
-15 -202 -20 -61 -5 -188 -18 -202 -20 -9 -2 -43 -6 -75 -10 -32 -3 -69 -7
-83 -10 -14 -2 -52 -7 -85 -10 -33 -3 -77 -8 -97 -10 -21 -3 -55 -7 -75 -10
-85 -10 -360 -46 -383 -50 -26 -4 -81 -11 -152 -20 -24 -3 -65 -10 -93 -15
-27 -5 -72 -12 -100 -15 -27 -3 -93 -13 -145 -21 -52 -9 -108 -17 -125 -20
-16 -2 -41 -6 -55 -9 -14 -3 -41 -7 -60 -10 -19 -3 -46 -7 -60 -10 -25 -5 -52
-9 -124 -20 -21 -4 -48 -9 -60 -11 -11 -2 -46 -8 -76 -13 -59 -10 -315 -56
-365 -66 -16 -3 -64 -12 -105 -20 -41 -8 -86 -16 -100 -19 -14 -2 -36 -7 -50
-10 -14 -3 -36 -8 -50 -10 -20 -4 -137 -28 -300 -62 -14 -3 -36 -7 -50 -10
-101 -21 -460 -102 -615 -139 -60 -15 -128 -31 -150 -36 -60 -14 -73 -17 -160
-39 -44 -11 -89 -22 -101 -25 -11 -3 -115 -30 -230 -60 -115 -31 -218 -58
-229 -60 -11 -3 -139 -39 -285 -81 -146 -42 -274 -79 -285 -81 -16 -4 -35 15
-90 88 -38 52 -76 100 -85 109 -29 28 -185 137 -225 157 -56 28 -348 96 -415
96 -53 0 -458 -12 -625 -18 -244 -9 -400 -16 -485 -21 -52 -3 -126 -7 -165 -9
-92 -4 -276 -15 -345 -20 -30 -2 -102 -7 -160 -10 -139 -7 -193 -14 -265 -31
-33 -8 -69 -17 -81 -19 -116 -25 -223 -59 -259 -82 -43 -28 -159 -108 -184
-128 -34 -26 -100 -98 -127 -137 -16 -24 -31 -45 -34 -48 -22 -20 -83 -116
-100 -156 -18 -40 -48 -150 -65 -234 -2 -8 -10 -45 -19 -83 -14 -61 -19 -114
-31 -347 -2 -41 -6 -120 -9 -175 -4 -55 -8 -147 -11 -205 -10 -186 -14 -253
-17 -255 -2 -1 -48 -26 -103 -55 -55 -30 -158 -87 -230 -128 -71 -42 -139 -80
-150 -86 -22 -13 -119 -70 -150 -89 -11 -7 -46 -29 -78 -49 -32 -21 -60 -38
-63 -38 -2 0 -36 -21 -76 -47 -40 -26 -85 -54 -99 -63 -46 -26 -174 -112 -305
-202 -69 -49 -129 -88 -134 -88 -5 0 -10 -4 -12 -8 -1 -5 -30 -28 -63 -52
-270 -196 -533 -405 -699 -555 -280 -253 -473 -447 -676 -681 -58 -67 -229
-288 -285 -368 -229 -329 -407 -680 -496 -976 -26 -87 -66 -247 -73 -290 -3
-19 -10 -59 -15 -88 -30 -153 -34 -521 -7 -657 2 -11 7 -42 10 -68 20 -135 70
-314 131 -469 52 -132 154 -324 243 -458 41 -63 78 -117 82 -120 3 -3 21 -25
40 -50 220 -288 562 -600 930 -847 87 -58 319 -203 326 -203 2 0 21 -11 42
-23 87 -55 552 -292 592 -302 3 0 21 -8 40 -17 42 -20 275 -117 363 -152 393
-154 868 -305 1322 -419 77 -20 147 -38 155 -41 8 -3 29 -7 45 -10 17 -3 109
-23 205 -45 96 -22 191 -43 210 -46 19 -3 42 -8 50 -10 8 -2 26 -6 40 -9 34
-6 239 -45 270 -51 24 -5 258 -45 290 -50 38 -5 117 -18 135 -21 11 -3 38 -7
60 -9 22 -3 65 -10 95 -15 30 -5 78 -12 105 -15 28 -3 61 -8 75 -10 14 -2 63
-9 110 -15 47 -6 99 -13 115 -15 17 -2 75 -9 130 -15 55 -6 116 -13 136 -16
20 -2 59 -7 85 -9 27 -3 69 -7 94 -10 25 -3 77 -7 115 -10 39 -3 86 -8 105
-10 35 -4 107 -11 230 -20 36 -2 97 -7 135 -10 136 -11 425 -27 710 -40 555
-25 1522 -21 2125 10 63 3 160 8 215 10 129 7 243 14 325 20 36 2 103 7 150
10 47 3 105 8 130 10 25 2 81 7 125 10 44 3 105 8 135 11 30 3 76 7 102 9 26
2 75 6 110 10 35 3 83 8 108 10 71 7 252 25 290 30 19 2 62 7 95 10 33 4 71 8
85 10 27 4 93 11 180 20 30 4 66 8 80 10 40 6 99 14 190 25 47 5 94 12 105 14
11 2 49 7 85 11 36 4 67 8 70 10 3 1 30 6 61 9 31 4 66 8 76 10 11 3 44 7 73
11 29 4 60 8 69 10 9 1 52 8 96 15 86 12 118 17 150 24 11 2 40 7 65 10 25 3
54 8 65 10 30 5 86 15 120 20 17 3 73 12 125 21 52 10 109 19 125 22 17 2 68
11 115 20 47 8 96 17 110 19 14 3 48 9 76 15 28 5 64 12 80 15 16 3 36 7 44 9
8 3 33 7 55 10 22 4 47 8 55 10 8 2 31 7 50 10 19 3 51 10 70 15 19 5 52 11
74 14 21 4 41 8 45 10 3 2 22 7 41 10 19 3 69 12 110 21 41 9 86 19 100 21 49
10 166 36 190 42 40 11 288 8 1045 -14 233 -7 1619 -7 1890 0 549 14 1025 29
1250 41 55 3 159 7 230 10 72 3 162 8 200 10 39 2 120 7 180 10 61 3 142 7
180 10 39 3 111 7 160 10 245 15 254 16 353 39 63 15 120 28 138 32 68 13 159
49 206 81 29 20 67 47 85 58 57 40 118 90 142 119 14 15 30 33 36 40 6 6 40
54 76 106 35 52 66 97 69 100 6 6 39 97 44 125 3 11 19 80 36 154 17 74 33
159 35 190 2 31 6 103 10 161 3 58 8 139 10 180 5 80 14 243 20 375 13 310 22
519 24 588 1 22 11 34 49 57 26 16 52 33 58 37 5 4 19 13 30 20 81 51 170 108
174 112 3 3 46 33 95 66 290 192 694 501 950 727 16 14 41 36 55 48 13 11 51
46 85 77 747 692 1207 1382 1379 2073 13 52 27 111 30 130 3 19 7 44 10 55 34
177 39 487 11 715 -37 296 -201 714 -382 973 -18 26 -49 71 -70 100 -158 227
-417 488 -723 728 -108 85 -94 75 -300 213 -470 315 -1077 601 -1795 844 -247
84 -694 213 -955 275 -121 29 -330 78 -373 86 -23 5 -112 23 -197 41 -85 17
-166 34 -180 36 -30 5 -127 24 -155 29 -11 2 -49 9 -85 15 -36 5 -78 12 -95
15 -42 8 -133 23 -175 29 -19 3 -46 8 -60 10 -14 3 -77 12 -140 21 -63 8 -126
17 -140 20 -45 7 -174 24 -230 30 -30 4 -66 8 -80 10 -14 2 -52 6 -85 9 -33 4
-76 8 -95 11 -35 4 -101 12 -175 20 -22 3 -67 7 -100 10 -33 3 -80 7 -105 10
-25 2 -76 7 -115 10 -38 2 -97 7 -130 10 -279 25 -668 46 -1105 61 -165 6
-1098 12 -1103 8z"/>
</g>
</svg>
